Coordinates
version=1
nRows=19
nColumns=24
inDegrees=yes

Units are S.I. units (second, meters, Newtons, ...)
Angles are in degrees.

endheader
time	pelvis_tilt	pelvis_list	pelvis_rotation	pelvis_tx	pelvis_ty	pelvis_tz	hip_flexion_r	hip_adduction_r	hip_rotation_r	knee_angle_r	ankle_angle_r	subtalar_angle_r	mtp_angle_r	hip_flexion_l	hip_adduction_l	hip_rotation_l	knee_angle_l	ankle_angle_l	subtalar_angle_l	mtp_angle_l	lumbar_extension	lumbar_bending	lumbar_rotation
      6.90000000	     39.24806776	      3.65989983	      2.34590451	      2.25172242	      0.67944863	     -0.23195399	    -22.59580495	     -6.87020978	    -18.87814743	    -60.10551362	     18.35351886	    -34.35935735	      0.00000000	    -39.47804188	      4.89569397	      0.16114793	    -12.63832726	     17.59699151	     10.40888202	      0.00000000	    -62.83381938	      1.59773397	     -4.23553566
      6.90500000	     39.17393801	      3.77612569	      2.71494438	      2.25770606	      0.67968626	     -0.23187131	    -21.76485703	     -6.74545547	    -19.14706263	    -58.99238245	     18.71497555	    -33.89064792	      0.00000000	    -40.26175998	      4.66260530	      0.14065233	    -12.06150784	     17.63101850	     10.78658163	      0.00000000	    -62.85967563	      1.78664846	     -4.62564389
      6.91000000	     39.11572584	      3.92724585	      3.10218407	      2.26366776	      0.67983287	     -0.23175741	    -21.00349409	     -6.64941906	    -19.46362757	    -57.77072694	     19.01342293	    -33.43724294	      0.00000000	    -41.04069336	      4.44027402	      0.12618925	    -11.52713861	     17.68881080	     11.12785468	      0.00000000	    -62.91199294	      1.95303890	     -5.01524664
      6.91500000	     38.97231913	      4.05536069	      3.36994126	      2.26956854	      0.67983340	     -0.23153548	    -20.12103299	     -6.57244076	    -19.62807889	    -56.49112420	     19.23878821	    -33.14824786	      0.00000000	    -41.69283179	      4.29562917	      0.03726293	    -11.04457035	     17.65024376	     11.25601227	      0.00000000	    -62.91575062	      2.02867679	     -5.31794493
      6.92000000	     38.92349980	      4.24791612	      3.78610203	      2.27550789	      0.67978336	     -0.23133557	    -19.47847938	     -6.49974261	    -20.00731381	    -55.03903778	     19.51364750	    -32.62732363	      0.00000000	    -42.41911733	      4.06717377	      0.05664270	    -10.64768575	     17.86899940	     11.71348344	      0.00000000	    -62.98769610	      2.15678994	     -5.70305218
      6.92500000	     38.84437583	      4.43422623	      4.13243696	      2.28141106	      0.67962670	     -0.23108767	    -18.81028028	     -6.44499927	    -20.31139281	    -53.50331307	     19.70936056	    -32.28253298	      0.00000000	    -43.09990420	      3.89340490	      0.05001021	    -10.26413714	     17.97753448	     11.92723869	      0.00000000	    -63.06124203	      2.24679571	     -6.04173929
      6.93000000	     38.73832472	      4.63012839	      4.43864061	      2.28727553	      0.67936197	     -0.23078681	    -18.13779125	     -6.41637062	    -20.58562581	    -51.87884588	     19.86099329	    -31.95546972	      0.00000000	    -43.71999670	      3.75476876	      0.01583689	     -9.94116346	     18.10551209	     12.13280081	      0.00000000	    -63.12428640	      2.29046381	     -6.33807184
      6.93500000	     38.55724101	      4.81759386	      4.56490817	      2.29311262	      0.67893413	     -0.23040257	    -17.34034339	     -6.46133071	    -20.67935080	    -50.24043058	     19.91121914	    -31.73236042	      0.00000000	    -44.25162448	      3.76096224	     -0.07572073	     -9.62994958	     18.14984657	     12.14513645	      0.00000000	    -63.12850681	      2.19816548	     -6.51591938
      6.94000000	     38.45702776	      5.04848596	      4.96393107	      2.29897211	      0.67851820	     -0.23005206	    -16.82521168	     -6.40906539	    -21.07397206	    -48.34037951	     20.09002334	    -31.36793882	      0.00000000	    -44.81304383	      3.55640886	     -0.08948899	     -9.45071285	     18.45088071	     12.53862933	      0.00000000	    -63.21083902	      2.27570750	     -6.82070687
      6.94500000	     38.29655702	      5.25605533	      5.15817457	      2.30476857	      0.67796120	     -0.22959331	    -16.19490810	     -6.41256818	    -21.25821420	    -46.41443184	     20.20840458	    -31.13684721	      0.00000000	    -45.30139133	      3.50649138	     -0.17469901	     -9.27311387	     18.57800720	     12.59337162	      0.00000000	    -63.27308504	      2.21160907	     -7.01297108
      6.95000000	     38.14843601	      5.49309436	      5.40727809	      2.31062433	      0.67733653	     -0.22911946	    -15.66423201	     -6.41754098	    -21.53361281	    -44.36872056	     20.27099707	    -30.87348064	      0.00000000	    -45.80457364	      3.42088637	     -0.19379821	     -9.10823495	     18.82467366	     12.80718630	      0.00000000	    -63.33071236	      2.15225888	     -7.21565843
      6.95500000	     37.92794241	      5.72981660	      5.46343189	      2.31644202	      0.67658303	     -0.22854148	    -15.01608029	     -6.49456658	    -21.60655670	    -42.30694611	     20.28234963	    -30.63928917	      0.00000000	    -46.22235158	      3.49669453	     -0.27885045	     -8.95327977	     18.89739676	     12.81920783	      0.00000000	    -63.33803864	      1.94698538	     -7.30062942
      6.96000000	     37.82442951	      6.00908556	      5.80340721	      2.32231721	      0.67588674	     -0.22807695	    -14.71021370	     -6.48316132	    -22.03806033	    -39.98210452	     20.29453234	    -30.35327722	      0.00000000	    -46.73220236	      3.34462371	     -0.27286328	     -8.88744353	     19.20844522	     13.17998504	      0.00000000	    -63.43466499	      1.94963897	     -7.56182116
      6.96500000	     37.59262674	      6.23824648	      5.85990946	      2.32818512	      0.67495720	     -0.22744807	    -14.17170321	     -6.52016291	    -22.14049639	    -37.69778861	     20.38437270	    -30.09480132	      0.00000000	    -47.10071422	      3.39957635	     -0.34875469	     -8.82756885	     19.44898091	     13.23419281	      0.00000000	    -63.42945195	      1.74112473	     -7.60683253
      6.97000000	     37.37854921	      6.50260275	      6.00968821	      2.33405449	      0.67403661	     -0.22678657	    -13.75650093	     -6.53216969	    -22.34219649	    -35.27904441	     20.38605029	    -29.77859443	      0.00000000	    -47.45961359	      3.38036017	     -0.40634397	     -8.82521838	     19.69192869	     13.50247611	      0.00000000	    -63.44850920	      1.58265812	     -7.71860969
      6.97500000	     37.15562556	      6.76655557	      6.08902825	      2.33997169	      0.67303193	     -0.22607523	    -13.36342731	     -6.56185475	    -22.51798887	    -32.80831046	     20.37047076	    -29.42751543	      0.00000000	    -47.81869710	      3.41001761	     -0.45308863	     -8.81378968	     19.91211422	     13.72193826	      0.00000000	    -63.45381603	      1.35652164	     -7.80435409
      6.98000000	     36.89612912	      7.04538085	      6.12646122	      2.34593589	      0.67193875	     -0.22531070	    -12.96379324	     -6.60593462	    -22.62989220	    -30.29884135	     20.34833603	    -29.04894709	      0.00000000	    -48.13468772	      3.47929291	     -0.53370726	     -8.82099261	     20.12466533	     13.92774655	      0.00000000	    -63.41613593	      1.08211065	     -7.85419519
      6.98500000	     36.63738175	      7.32501633	      6.15193394	      2.35192965	      0.67080141	     -0.22448514	    -12.61262199	     -6.63571905	    -22.73987018	    -27.74270462	     20.26837335	    -28.59825103	      0.00000000	    -48.43568325	      3.53889475	     -0.58837779	     -8.86610296	     20.33316418	     14.23524836	      0.00000000	    -63.38068007	      0.79039708	     -7.92276881
      6.99000000	     36.34386929	      7.62247065	      6.09616416	      2.35801604	      0.66956663	     -0.22359746	    -12.23700213	     -6.70056667	    -22.75664405	    -25.20096676	     20.16683179	    -28.16349334	      0.00000000	    -48.72313145	      3.67518784	     -0.64203261	     -8.87979416	     20.48717436	     14.45566505	      0.00000000	    -63.28920258	      0.41465731	     -7.94569702
